{
  "asset": {
    "generator": "Khronos glTF Blender I/O v1.5.17",
    "version": "2.0"
  },
  "scene": 0,
  "scenes": [
    {
      "name": "Scene",
      "nodes": [
        0
      ]
    }
  ],
  "nodes": [
    {
      "mesh": 0,
      "name": "sphere_gltf"
    }
  ],
  "materials": [
    {
      "doubleSided": true,
      "name": "floor_tiles_08",
      "normalTexture": {
        "index": 0
      },
      "pbrMetallicRoughness": {
        "baseColorTexture": {
          "index": 1
        },
        "metallicFactor": 0,
        "metallicRoughnessTexture": {
          "index": 2
        }
      }
    }
  ],
  "meshes": [
    {
      "name": "Sphere.001",
      "primitives": [
        {
          "attributes": {
            "POSITION": 0,
            "NORMAL": 1,
            "TEXCOORD_0": 2
          },
          "indices": 3,
          "material": 0
        }
      ]
    }
  ],
  "textures": [
    {
      "sampler": 0,
      "source": 0
    },
    {
      "sampler": 0,
      "source": 1
    },
    {
      "sampler": 0,
      "source": 2
    }
  ],
  "images": [
    {
      "mimeType": "image/jpeg",
      "name": "floor_tiles_08_nor_gl_4k",
      "uri": "textures/floor_tiles_08_nor_gl_1k.jpg"
    },
    {
      "mimeType": "image/jpeg",
      "name": "floor_tiles_08_diff_4k",
      "uri": "textures/floor_tiles_08_diff_1k.jpg"
    },
    {
      "mimeType": "image/jpeg",
      "name": "floor_tiles_08_rough_4k",
      "uri": "textures/floor_tiles_08_rough_1k.jpg"
    }
  ],
  "accessors": [
    {
      "bufferView": 0,
      "componentType": 5126,
      "count": 53902,
      "max": [
        0.7544682025909424,
        0.75443035364151,
        0.755919873714447
      ],
      "min": [
        -0.7544761300086975,
        -0.7540916800498962,
        -0.7559126615524292
      ],
      "type": "VEC3"
    },
    {
      "bufferView": 1,
      "componentType": 5126,
      "count": 53902,
      "type": "VEC3"
    },
    {
      "bufferView": 2,
      "componentType": 5126,
      "count": 53902,
      "type": "VEC2"
    },
    {
      "bufferView": 3,
      "componentType": 5123,
      "count": 322170,
      "type": "SCALAR"
    }
  ],
  "bufferViews": [
    {
      "buffer": 0,
      "byteLength": 646824,
      "byteOffset": 0
    },
    {
      "buffer": 0,
      "byteLength": 646824,
      "byteOffset": 646824
    },
    {
      "buffer": 0,
      "byteLength": 431216,
      "byteOffset": 1293648
    },
    {
      "buffer": 0,
      "byteLength": 644340,
      "byteOffset": 1724864
    }
  ],
  "samplers": [
    {
      "magFilter": 9729,
      "minFilter": 9987
    }
  ],
  "buffers": [
    {
      "byteLength": 2369204,
      "uri": "floor_tiles_08.bin"
    }
  ]
}